<?xml version="1.0" encoding="UTF-8" standalone="no"?>
<!-- Generator: Adobe Illustrator 19.0.0, SVG Export Plug-In . SVG Version: 6.00 Build 0)  -->

<svg
   xmlns:dc="http://purl.org/dc/elements/1.1/"
   xmlns:cc="http://creativecommons.org/ns#"
   xmlns:rdf="http://www.w3.org/1999/02/22-rdf-syntax-ns#"
   xmlns:svg="http://www.w3.org/2000/svg"
   xmlns="http://www.w3.org/2000/svg"
   xmlns:sodipodi="http://sodipodi.sourceforge.net/DTD/sodipodi-0.dtd"
   xmlns:inkscape="http://www.inkscape.org/namespaces/inkscape"
   version="1.1"
   id="Capa_1"
   x="0px"
   y="0px"
   viewBox="0 0 358.228 358.228"
   style="enable-background:new 0 0 358.228 358.228;"
   xml:space="preserve"
   sodipodi:docname="017-computer-iaa.svg"
   inkscape:version="0.92.2 5c3e80d, 2017-08-06"
   inkscape:export-filename="/Users/usuario/Desktop/laudos/laudos/resources/electron/osx/017-computer-iaa.png"
   inkscape:export-xdpi="274.41742"
   inkscape:export-ydpi="274.41742"><metadata
     id="metadata54"><rdf:RDF><cc:Work
         rdf:about=""><dc:format>image/svg+xml</dc:format><dc:type
           rdf:resource="http://purl.org/dc/dcmitype/StillImage" /><dc:title /></cc:Work></rdf:RDF></metadata><defs
     id="defs52" /><sodipodi:namedview
     pagecolor="#ffffff"
     bordercolor="#666666"
     borderopacity="1"
     objecttolerance="10"
     gridtolerance="10"
     guidetolerance="10"
     inkscape:pageopacity="0"
     inkscape:pageshadow="2"
     inkscape:window-width="1920"
     inkscape:window-height="1155"
     id="namedview50"
     showgrid="false"
     inkscape:zoom="2.6296102"
     inkscape:cx="98.113402"
     inkscape:cy="194.32538"
     inkscape:window-x="0"
     inkscape:window-y="1"
     inkscape:window-maximized="1"
     inkscape:current-layer="g17" /><g
     id="g17"><g
       id="g60"><g
         id="Guides_For_Artboard_8_" /><g
         id="Artwork_8_" /><path
         inkscape:connector-curvature="0"
         id="path6"
         d="M 317.459,292.103 H 38.75 c -16.763,0 -30.352,13.59 -30.352,30.353 v 5.421 c 0,16.762 13.589,30.351 30.352,30.351 h 278.709 c 16.762,0 30.35,-13.589 30.35,-30.351 v -5.421 c 0,-16.763 -13.588,-30.353 -30.35,-30.353 z M 188.292,345.114 H 44.998 c -9.937,0 -17.991,-8.054 -17.991,-17.991 v -3.213 c 0,-9.936 8.055,-17.99 17.991,-17.99 h 143.294 z"
         style="fill:#2b3237" /><path
         inkscape:connector-curvature="0"
         id="path8"
         d="m 27.007,323.91 v 3.213 c 0,9.938 8.055,17.991 17.991,17.991 H 188.292 V 305.92 H 44.998 c -9.936,-0.001 -17.991,8.054 -17.991,17.99 z"
         style="fill:#f7f1e6" /><path
         inkscape:connector-curvature="0"
         id="path12"
         d="M 296.441,0 H 63.666 C 34.227,0 10.275,23.95 10.275,53.391 v 173.773 c 0,29.439 23.951,53.391 53.391,53.391 h 232.775 c 29.439,0 53.389,-23.951 53.389,-53.391 V 53.39 C 349.83,23.95 325.881,0 296.441,0 Z m 23.737,227.164 c 0,13.09 -10.648,23.737 -23.736,23.737 H 63.666 c -13.089,0 -23.737,-10.647 -23.737,-23.737 V 53.39 c 0,-13.089 10.648,-23.738 23.737,-23.738 h 232.775 c 13.088,0 23.736,10.649 23.736,23.738 v 173.774 z"
         style="fill:#2b3237" /><path
         id="rect3756-9"
         d="m 63.664812,29.653473 c -13.089,0 -23.73633,10.649281 -23.73633,23.738281 V 227.1652 c 0,13.09 10.64733,23.73633 23.73633,23.73633 H 296.4402 c 13.088,0 23.73632,-10.64633 23.73632,-23.73633 V 53.391754 c 0,-13.089 -10.64832,-23.738281 -23.73632,-23.738281 z"
         style="fill:#f7f1e6;fill-opacity:1;stroke-width:2.3898778"
         inkscape:connector-curvature="0" /><circle
         r="1.849959"
         cy="304.46741"
         cx="313.74527"
         id="path3786"
         style="fill:#66ff00;fill-opacity:1;stroke-width:0.34821427" /><circle
         r="1.849959"
         cy="304.46741"
         cx="308.00964"
         id="path3786-3"
         style="fill:#66ff00;fill-opacity:1;stroke-width:0.34821427" /><circle
         r="1.849959"
         cy="304.46741"
         cx="302.27405"
         id="path3786-8"
         style="fill:#66ff00;fill-opacity:1;stroke-width:0.34821427" /><g
         inkscape:export-ydpi="90"
         inkscape:export-xdpi="90"
         id="g4241"
         transform="matrix(0.45052343,0,0,0.45052343,18.583124,-110.4453)"><g
           id="g4192"
           transform="translate(0,3.42997)"><path
             sodipodi:nodetypes="cscczc"
             inkscape:connector-curvature="0"
             id="path4172-8"
             d="m 531.19237,373.64526 c -85.02203,-11.69323 -147.24338,40.72792 -178.54446,109.9551 -18.15236,40.14676 -48.60502,130.37047 -6.40797,185.66485 l -3.43204,3.66702 c -31.57549,-27.08404 -48.92841,-105.9654 0.29406,-207.36309 49.22247,-101.39769 147.60099,-118.41442 188.09041,-91.92388 z"
             style="fill:#7cafa6;fill-opacity:1;fill-rule:evenodd;stroke:none;stroke-width:1px;stroke-linecap:butt;stroke-linejoin:miter;stroke-opacity:1" /><path
             sodipodi:nodetypes="czzczzc"
             inkscape:connector-curvature="0"
             id="path4151-9"
             d="m 524.8079,478.93223 c 29.76003,-20.96961 46.95016,-53.39845 24,-87 -22.95016,-33.60155 -84.87409,-41.00694 -153,8 -68.12591,49.00694 -114.35304,208.38206 -53,273 -49.79782,-39.6178 -64.61567,-123.73999 -4,-241 60.61567,-117.26001 202.53637,-109.56661 233,-60 30.46363,49.56661 -7.35225,108.29086 -47,107 z"
             style="fill:#96cdc6;fill-opacity:1;fill-rule:evenodd;stroke:none;stroke-width:1px;stroke-linecap:butt;stroke-linejoin:miter;stroke-opacity:1" /></g><path
           style="fill:#000000;fill-opacity:0.1372549;fill-rule:evenodd;stroke:none;stroke-width:1px;stroke-linecap:butt;stroke-linejoin:miter;stroke-opacity:1"
           d="m 336.91685,438.55446 c -4.48626,9.44549 -8.89728,18.7536 -12.72793,27.79813 l 22.67162,34.2063 c 3.74185,-9.59222 7.98799,-18.31397 12.28597,-27.04684 -4.21991,-16.10941 -11.95322,-24.90471 -22.22966,-34.95759 z"
           id="path4236"
           inkscape:connector-curvature="0"
           sodipodi:nodetypes="ccccc" /><g
           id="g4206"><path
             sodipodi:nodetypes="cscczc"
             inkscape:connector-curvature="0"
             id="path4172"
             d="m 185.61553,377.07523 c 85.02203,-11.69323 147.24338,40.72792 178.54446,109.9551 18.15236,40.14676 48.60502,130.37047 6.40797,185.66485 L 374,676.3622 C 405.57549,649.27816 422.92841,570.3968 373.70594,468.99911 324.48347,367.60142 226.10495,350.58469 185.61553,377.07523 Z"
             style="fill:#a6c6d5;fill-opacity:1;fill-rule:evenodd;stroke:none;stroke-width:1px;stroke-linecap:butt;stroke-linejoin:miter;stroke-opacity:1" /><path
             sodipodi:nodetypes="czzczzc"
             inkscape:connector-curvature="0"
             id="path4151"
             d="m 192,482.3622 c -29.76003,-20.96961 -46.95016,-53.39845 -24,-87 22.95016,-33.60155 84.87409,-41.00694 153,8 68.12591,49.00694 114.35304,208.38206 53,273 49.79782,-39.6178 64.61567,-123.73999 4,-241 -60.61567,-117.26001 -202.53637,-109.56661 -233,-60 -30.46363,49.56661 7.35225,108.29086 47,107 z"
             style="fill:#d2e8f4;fill-opacity:1;fill-rule:evenodd;stroke:none;stroke-width:1px;stroke-linecap:butt;stroke-linejoin:miter;stroke-opacity:1" /></g></g><text
         id="text3965"
         y="230.41096"
         x="63.916172"
         style="font-style:normal;font-weight:normal;font-size:27.07886505px;line-height:1.25;font-family:sans-serif;letter-spacing:0px;word-spacing:0px;fill:#537a8a;fill-opacity:1;stroke:none;stroke-width:0.67697161;"
         xml:space="preserve"><tspan
           style="stroke-width:0.67697161;fill:#537a8a;fill-opacity:1;"
           y="230.41096"
           x="63.916172"
           id="tspan3963"
           sodipodi:role="line">Almeida Andrade</tspan></text>
</g></g><g
     id="g19" /><g
     id="g21" /><g
     id="g23" /><g
     id="g25" /><g
     id="g27" /><g
     id="g29" /><g
     id="g31" /><g
     id="g33" /><g
     id="g35" /><g
     id="g37" /><g
     id="g39" /><g
     id="g41" /><g
     id="g43" /><g
     id="g45" /><g
     id="g47" /></svg>