<svg width="1024" height="1024" viewBox="0 0 1024 1024" fill="none" xmlns="http://www.w3.org/2000/svg">
<path d="M812.046 56.5156H211.703C184.908 56.5156 163.187 78.237 163.187 105.032V918.968C163.187 945.763 184.908 967.484 211.703 967.484H812.046C838.841 967.484 860.562 945.763 860.562 918.968V105.032C860.562 78.237 838.841 56.5156 812.046 56.5156Z" stroke="black" stroke-width="2.62527" stroke-linejoin="round"/>
<path d="M287 104.258H737" stroke="black" stroke-width="20"/>
<path d="M395.258 142.325H645.258" stroke="black" stroke-width="8.85562"/>
<path d="M222.756 177.548H651.337" stroke="black" stroke-width="6"/>
<path d="M682.341 177.548H801.244" stroke="black" stroke-width="6"/>
<path d="M222.756 197.967H651.337" stroke="black" stroke-width="6"/>
<path d="M682.341 197.967H801.244" stroke="black" stroke-width="6"/>
<path d="M222.756 221.257H651.337" stroke="black" stroke-width="6"/>
<path d="M682.341 221.257H801.244" stroke="black" stroke-width="6"/>
<path d="M462 876.877H562" stroke="black" stroke-width="6"/>
<path d="M162 905.336H862" stroke="black" stroke-width="3"/>
<path d="M322 928.891H702" stroke="black" stroke-width="6"/>
<path d="M237 943.254H787" stroke="black" stroke-width="6"/>
<path d="M437 856.86H587" stroke="black" stroke-width="6"/>
<path d="M162 245.677H862" stroke="black" stroke-width="3"/>
<path d="M418 259H293V384H418V259Z" fill="black"/>
<path d="M418 694H293V819H418V694Z" fill="black"/>
<path d="M418 549H293V674H418V549Z" fill="black"/>
<path d="M418 404H293V529H418V404Z" fill="black"/>
<path d="M747 259H622V384H747V259Z" fill="black"/>
<path d="M747 694H622V819H747V694Z" fill="black"/>
<path d="M747 549H622V674H747V549Z" fill="black"/>
<path d="M747 404H622V529H747V404Z" fill="black"/>
</svg>
