<svg width="1024" height="1024" viewBox="0 0 1024 1024" fill="none" xmlns="http://www.w3.org/2000/svg">
<path d="M812.046 56.5156H211.703C184.908 56.5156 163.187 78.237 163.187 105.032V918.968C163.187 945.763 184.908 967.484 211.703 967.484H812.046C838.841 967.484 860.562 945.763 860.562 918.968V105.032C860.562 78.237 838.841 56.5156 812.046 56.5156Z" stroke="black" stroke-width="2.62527" stroke-linejoin="round"/>
<path d="M287 104.258H737" stroke="black" stroke-width="20"/>
<path d="M395.258 142.325H645.258" stroke="black" stroke-width="8.85562"/>
<path d="M802 256H702V356H802V256Z" fill="black" stroke="black" stroke-width="9.99999" stroke-linejoin="round"/>
<path d="M802 777H702V877H802V777Z" fill="black" stroke="black" stroke-width="9.99999" stroke-linejoin="round"/>
<path d="M802 646H702V746H802V646Z" fill="black" stroke="black" stroke-width="9.99999" stroke-linejoin="round"/>
<path d="M802 516H702V616H802V516Z" fill="black" stroke="black" stroke-width="9.99999" stroke-linejoin="round"/>
<path d="M802 386H702V486H802V386Z" fill="black" stroke="black" stroke-width="9.99999" stroke-linejoin="round"/>
<path d="M222.756 177.548H651.337" stroke="black" stroke-width="6"/>
<path d="M682.341 177.548H801.244" stroke="black" stroke-width="6"/>
<path d="M222.756 197.967H651.337" stroke="black" stroke-width="6"/>
<path d="M682.341 197.967H801.244" stroke="black" stroke-width="6"/>
<path d="M222.756 221.257H651.337" stroke="black" stroke-width="6"/>
<path d="M682.341 221.257H801.244" stroke="black" stroke-width="6"/>
<path d="M217.947 274.825H651" stroke="black" stroke-width="6"/>
<path d="M217.947 297.764H651" stroke="black" stroke-width="6"/>
<path d="M217.947 320.704H651" stroke="black" stroke-width="6"/>
<path d="M217.947 343.644H651" stroke="black" stroke-width="6"/>
<path d="M217.947 366.583H651" stroke="black" stroke-width="6"/>
<path d="M217.947 389.523H651" stroke="black" stroke-width="6"/>
<path d="M217.947 412.463H651" stroke="black" stroke-width="6"/>
<path d="M217.947 435.403H651" stroke="black" stroke-width="6"/>
<path d="M217.947 523.875H651" stroke="black" stroke-width="6"/>
<path d="M217.947 545.993H651" stroke="black" stroke-width="6"/>
<path d="M217.947 568.112H651" stroke="black" stroke-width="6"/>
<path d="M217.947 590.23H651" stroke="black" stroke-width="6"/>
<path d="M213.141 667.201H646.194" stroke="black" stroke-width="6"/>
<path d="M213.141 689.319H646.194" stroke="black" stroke-width="6"/>
<path d="M213.141 711.437H646.194" stroke="black" stroke-width="6"/>
<path d="M213.141 733.556H646.194" stroke="black" stroke-width="6"/>
<path d="M462 876.877H562" stroke="black" stroke-width="6"/>
<path d="M162 905.336H862" stroke="black" stroke-width="3"/>
<path d="M322 928.891H702" stroke="black" stroke-width="6"/>
<path d="M237 943.254H787" stroke="black" stroke-width="6"/>
<path d="M437 856.86H587" stroke="black" stroke-width="6"/>
<path d="M162 245.677H862" stroke="black" stroke-width="3"/>
</svg>
